<svg xmlns:xlink="http://www.w3.org/1999/xlink" xmlns="http://www.w3.org/2000/svg"
  xmlns:svg="http://www.w3.org/2000/svg" width="159.30656" height="160.34352"
  viewBox="0 0 159.30656 160.34352" version="1.1" id="svg1" xml:space="preserve"><defs id="defs1"><linearGradient id="linearGradient8"><stop style="stop-color:#3dba7f;stop-opacity:1;" offset="0" id="stop8"/><stop style="stop-color:#366e91;stop-opacity:1;" offset="1" id="stop9"/></linearGradient><linearGradient xlink:href="#linearGradient8" id="linearGradient9" x1="93.328346" y1="103.06301" x2="211.93723" y2="103.06301" gradientUnits="userSpaceOnUse" gradientTransform="matrix(1.343125,0,0,1.1238839,-114.814,-25.791114)"/></defs><g id="layer1" transform="translate(-10.53765,-9.868)"><path style="fill:url(#linearGradient9);stroke:none;stroke-width:1.22863;stroke-opacity:0.294807" d="M 104.17785,168.64039 C 62.050352,163.00616 35.041546,148.68217 20.36092,124.18847 -10.588971,72.550534 35.4166,10.364308 104.93387,9.8702767 145.4216,9.5825466 147.51035,36.615614 109.10134,63.806548 91.276937,76.425001 83.074378,82.32011 77.315354,86.650839 67.088629,94.341253 66.315016,93.452756 73.957546,82.794377 77.694397,77.582904 78.019877,76.250462 78.44096,64.440092 79.103926,45.845297 79.36452,46.268146 67.24192,46.268146 c -12.599305,0 -11.582237,-4.009047 -11.119799,43.831477 0.374799,38.773997 0.374799,38.773997 11.119799,38.773997 10.744997,0 10.744997,0 11.416559,-9.97615 0.91452,-13.58532 9.38874,-21.087989 15.171887,-13.43245 19.308674,25.56018 17.276364,23.97054 30.645974,23.97054 14.64319,0 14.9345,2.1908 -2.84849,-21.42277 -15.828,-21.017582 -15.21328,-18.356651 -5.83467,-25.256693 12.66427,-9.31738 14.62169,-10.076676 25.97722,-10.076676 16.61102,0 25.76626,5.827238 27.6997,17.630605 1.49734,9.141123 -0.91384,15.133764 -18.118,45.029464 -8.76983,15.23936 -10.89126,20.55283 -10.90238,27.30685 -0.012,7.41106 -11.49211,9.30816 -36.27187,5.99405 z" id="path8"/></g></svg>
